<svg width="194" height="58" viewBox="0 0 194 58" fill="none" xmlns="http://www.w3.org/2000/svg">
<path d="M66.168 22.734H63.432C63.42 23.526 63.564 24.21 63.864 24.786C64.164 25.362 64.566 25.836 65.07 26.208C65.586 26.58 66.174 26.85 66.834 27.018C67.506 27.198 68.196 27.288 68.904 27.288C69.78 27.288 70.548 27.186 71.208 26.982C71.88 26.778 72.438 26.496 72.882 26.136C73.338 25.764 73.68 25.326 73.908 24.822C74.136 24.318 74.25 23.772 74.25 23.184C74.25 22.464 74.094 21.876 73.782 21.42C73.482 20.952 73.122 20.58 72.702 20.304C72.282 20.028 71.856 19.83 71.424 19.71C71.004 19.578 70.674 19.488 70.434 19.44C69.63 19.236 68.976 19.068 68.472 18.936C67.98 18.804 67.59 18.672 67.302 18.54C67.026 18.408 66.84 18.264 66.744 18.108C66.648 17.952 66.6 17.748 66.6 17.496C66.6 17.22 66.66 16.992 66.78 16.812C66.9 16.632 67.05 16.482 67.23 16.362C67.422 16.242 67.632 16.158 67.86 16.11C68.088 16.062 68.316 16.038 68.544 16.038C68.892 16.038 69.21 16.068 69.498 16.128C69.798 16.188 70.062 16.29 70.29 16.434C70.518 16.578 70.698 16.776 70.83 17.028C70.974 17.28 71.058 17.598 71.082 17.982H73.818C73.818 17.238 73.674 16.608 73.386 16.092C73.11 15.564 72.732 15.132 72.252 14.796C71.772 14.46 71.22 14.22 70.596 14.076C69.984 13.92 69.342 13.842 68.67 13.842C68.094 13.842 67.518 13.92 66.942 14.076C66.366 14.232 65.85 14.472 65.394 14.796C64.938 15.12 64.566 15.528 64.278 16.02C64.002 16.5 63.864 17.07 63.864 17.73C63.864 18.318 63.972 18.822 64.188 19.242C64.416 19.65 64.71 19.992 65.07 20.268C65.43 20.544 65.838 20.772 66.294 20.952C66.75 21.12 67.218 21.264 67.698 21.384C68.166 21.516 68.628 21.636 69.084 21.744C69.54 21.852 69.948 21.978 70.308 22.122C70.668 22.266 70.956 22.446 71.172 22.662C71.4 22.878 71.514 23.16 71.514 23.508C71.514 23.832 71.43 24.102 71.262 24.318C71.094 24.522 70.884 24.684 70.632 24.804C70.38 24.924 70.11 25.008 69.822 25.056C69.534 25.092 69.264 25.11 69.012 25.11C68.64 25.11 68.28 25.068 67.932 24.984C67.584 24.888 67.278 24.75 67.014 24.57C66.762 24.378 66.558 24.132 66.402 23.832C66.246 23.532 66.168 23.166 66.168 22.734ZM84.3915 27V17.694H81.8355V22.572C81.8355 23.52 81.6795 24.204 81.3675 24.624C81.0555 25.032 80.5515 25.236 79.8555 25.236C79.2435 25.236 78.8175 25.05 78.5775 24.678C78.3375 24.294 78.2175 23.718 78.2175 22.95V17.694H75.6615V23.418C75.6615 23.994 75.7095 24.522 75.8055 25.002C75.9135 25.47 76.0935 25.872 76.3455 26.208C76.5975 26.532 76.9395 26.784 77.3715 26.964C77.8155 27.144 78.3795 27.234 79.0635 27.234C79.6035 27.234 80.1315 27.114 80.6475 26.874C81.1635 26.634 81.5835 26.244 81.9075 25.704H81.9615V27H84.3915ZM91.0294 25.326C90.6214 25.326 90.2734 25.242 89.9854 25.074C89.6974 24.906 89.4634 24.69 89.2834 24.426C89.1154 24.15 88.9894 23.832 88.9054 23.472C88.8334 23.112 88.7974 22.746 88.7974 22.374C88.7974 21.99 88.8334 21.618 88.9054 21.258C88.9774 20.898 89.0974 20.58 89.2654 20.304C89.4454 20.028 89.6734 19.806 89.9494 19.638C90.2374 19.458 90.5914 19.368 91.0114 19.368C91.4194 19.368 91.7614 19.458 92.0374 19.638C92.3254 19.806 92.5594 20.034 92.7394 20.322C92.9194 20.598 93.0454 20.916 93.1174 21.276C93.2014 21.636 93.2434 22.002 93.2434 22.374C93.2434 22.746 93.2074 23.112 93.1354 23.472C93.0634 23.832 92.9374 24.15 92.7574 24.426C92.5894 24.69 92.3614 24.906 92.0734 25.074C91.7974 25.242 91.4494 25.326 91.0294 25.326ZM86.3314 17.694V30.258H88.8874V25.848H88.9234C89.2354 26.304 89.6314 26.652 90.1114 26.892C90.6034 27.12 91.1374 27.234 91.7134 27.234C92.3974 27.234 92.9914 27.102 93.4954 26.838C94.0114 26.574 94.4374 26.22 94.7734 25.776C95.1214 25.332 95.3794 24.822 95.5474 24.246C95.7154 23.67 95.7994 23.07 95.7994 22.446C95.7994 21.786 95.7154 21.156 95.5474 20.556C95.3794 19.944 95.1214 19.41 94.7734 18.954C94.4254 18.498 93.9874 18.132 93.4594 17.856C92.9314 17.58 92.3014 17.442 91.5694 17.442C90.9934 17.442 90.4654 17.556 89.9854 17.784C89.5054 18.012 89.1094 18.378 88.7974 18.882H88.7614V17.694H86.3314ZM103.599 21.348H99.4413C99.4533 21.168 99.4893 20.964 99.5493 20.736C99.6213 20.508 99.7353 20.292 99.8913 20.088C100.059 19.884 100.275 19.716 100.539 19.584C100.815 19.44 101.157 19.368 101.565 19.368C102.189 19.368 102.651 19.536 102.951 19.872C103.263 20.208 103.479 20.7 103.599 21.348ZM99.4413 22.968H106.155C106.203 22.248 106.143 21.558 105.975 20.898C105.807 20.238 105.531 19.65 105.147 19.134C104.775 18.618 104.295 18.21 103.707 17.91C103.119 17.598 102.429 17.442 101.637 17.442C100.929 17.442 100.281 17.568 99.6933 17.82C99.1173 18.072 98.6193 18.42 98.1993 18.864C97.7793 19.296 97.4553 19.812 97.2273 20.412C96.9993 21.012 96.8853 21.66 96.8853 22.356C96.8853 23.076 96.9933 23.736 97.2093 24.336C97.4373 24.936 97.7553 25.452 98.1633 25.884C98.5713 26.316 99.0693 26.652 99.6573 26.892C100.245 27.12 100.905 27.234 101.637 27.234C102.693 27.234 103.593 26.994 104.337 26.514C105.081 26.034 105.633 25.236 105.993 24.12H103.743C103.659 24.408 103.431 24.684 103.059 24.948C102.687 25.2 102.243 25.326 101.727 25.326C101.007 25.326 100.455 25.14 100.071 24.768C99.6873 24.396 99.4773 23.796 99.4413 22.968ZM107.671 17.694V27H110.227V22.806C110.227 22.386 110.269 21.996 110.353 21.636C110.437 21.276 110.575 20.964 110.767 20.7C110.971 20.424 111.235 20.208 111.559 20.052C111.883 19.896 112.279 19.818 112.747 19.818C112.903 19.818 113.065 19.83 113.233 19.854C113.401 19.866 113.545 19.884 113.665 19.908V17.532C113.461 17.472 113.275 17.442 113.107 17.442C112.783 17.442 112.471 17.49 112.171 17.586C111.871 17.682 111.589 17.82 111.325 18C111.061 18.168 110.827 18.378 110.623 18.63C110.419 18.87 110.257 19.134 110.137 19.422H110.101V17.694H107.671ZM115.099 14.148V27H124.027V25.56H116.809V21.114H123.487V19.674H116.809V15.588H123.973V14.148H115.099ZM128.353 22.104L124.861 27H126.715L129.307 23.148L131.899 27H133.861L130.261 21.978L133.465 17.694H131.629L129.307 20.952L127.075 17.694H125.113L128.353 22.104ZM141.486 20.682H143.07C143.01 20.13 142.866 19.656 142.638 19.26C142.41 18.852 142.116 18.516 141.756 18.252C141.408 17.988 141 17.796 140.532 17.676C140.076 17.544 139.584 17.478 139.056 17.478C138.324 17.478 137.682 17.61 137.13 17.874C136.578 18.126 136.116 18.48 135.744 18.936C135.384 19.38 135.114 19.908 134.934 20.52C134.754 21.12 134.664 21.768 134.664 22.464C134.664 23.16 134.754 23.802 134.934 24.39C135.126 24.966 135.402 25.464 135.762 25.884C136.134 26.304 136.59 26.628 137.13 26.856C137.682 27.084 138.312 27.198 139.02 27.198C140.208 27.198 141.144 26.886 141.828 26.262C142.524 25.638 142.956 24.75 143.124 23.598H141.558C141.462 24.318 141.198 24.876 140.766 25.272C140.346 25.668 139.758 25.866 139.002 25.866C138.522 25.866 138.108 25.77 137.76 25.578C137.412 25.386 137.13 25.134 136.914 24.822C136.698 24.498 136.536 24.132 136.428 23.724C136.332 23.316 136.284 22.896 136.284 22.464C136.284 21.996 136.332 21.546 136.428 21.114C136.524 20.67 136.68 20.28 136.896 19.944C137.124 19.608 137.424 19.338 137.796 19.134C138.168 18.93 138.63 18.828 139.182 18.828C139.83 18.828 140.346 18.99 140.73 19.314C141.114 19.638 141.366 20.094 141.486 20.682ZM144.836 14.148V27H146.366V21.744C146.366 21.324 146.42 20.94 146.528 20.592C146.648 20.232 146.822 19.92 147.05 19.656C147.278 19.392 147.56 19.188 147.896 19.044C148.244 18.9 148.652 18.828 149.12 18.828C149.708 18.828 150.17 18.996 150.506 19.332C150.842 19.668 151.01 20.124 151.01 20.7V27H152.54V20.88C152.54 20.376 152.486 19.92 152.378 19.512C152.282 19.092 152.108 18.732 151.856 18.432C151.604 18.132 151.274 17.898 150.866 17.73C150.458 17.562 149.948 17.478 149.336 17.478C149.06 17.478 148.772 17.508 148.472 17.568C148.184 17.628 147.902 17.724 147.626 17.856C147.362 17.976 147.122 18.138 146.906 18.342C146.69 18.534 146.522 18.774 146.402 19.062H146.366V14.148H144.836ZM163.082 26.964C162.818 27.12 162.452 27.198 161.984 27.198C161.588 27.198 161.27 27.09 161.03 26.874C160.802 26.646 160.688 26.28 160.688 25.776C160.268 26.28 159.776 26.646 159.212 26.874C158.66 27.09 158.06 27.198 157.412 27.198C156.992 27.198 156.59 27.15 156.206 27.054C155.834 26.958 155.51 26.808 155.234 26.604C154.958 26.4 154.736 26.136 154.568 25.812C154.412 25.476 154.334 25.074 154.334 24.606C154.334 24.078 154.424 23.646 154.604 23.31C154.784 22.974 155.018 22.704 155.306 22.5C155.606 22.284 155.942 22.122 156.314 22.014C156.698 21.906 157.088 21.816 157.484 21.744C157.904 21.66 158.3 21.6 158.672 21.564C159.056 21.516 159.392 21.456 159.68 21.384C159.968 21.3 160.196 21.186 160.364 21.042C160.532 20.886 160.616 20.664 160.616 20.376C160.616 20.04 160.55 19.77 160.418 19.566C160.298 19.362 160.136 19.206 159.932 19.098C159.74 18.99 159.518 18.918 159.266 18.882C159.026 18.846 158.786 18.828 158.546 18.828C157.898 18.828 157.358 18.954 156.926 19.206C156.494 19.446 156.26 19.908 156.224 20.592H154.694C154.718 20.016 154.838 19.53 155.054 19.134C155.27 18.738 155.558 18.42 155.918 18.18C156.278 17.928 156.686 17.748 157.142 17.64C157.61 17.532 158.108 17.478 158.636 17.478C159.056 17.478 159.47 17.508 159.878 17.568C160.298 17.628 160.676 17.754 161.012 17.946C161.348 18.126 161.618 18.384 161.822 18.72C162.026 19.056 162.128 19.494 162.128 20.034V24.822C162.128 25.182 162.146 25.446 162.182 25.614C162.23 25.782 162.374 25.866 162.614 25.866C162.746 25.866 162.902 25.836 163.082 25.776V26.964ZM160.598 22.194C160.406 22.338 160.154 22.446 159.842 22.518C159.53 22.578 159.2 22.632 158.852 22.68C158.516 22.716 158.174 22.764 157.826 22.824C157.478 22.872 157.166 22.956 156.89 23.076C156.614 23.196 156.386 23.37 156.206 23.598C156.038 23.814 155.954 24.114 155.954 24.498C155.954 24.75 156.002 24.966 156.098 25.146C156.206 25.314 156.338 25.452 156.494 25.56C156.662 25.668 156.854 25.746 157.07 25.794C157.286 25.842 157.514 25.866 157.754 25.866C158.258 25.866 158.69 25.8 159.05 25.668C159.41 25.524 159.704 25.35 159.932 25.146C160.16 24.93 160.328 24.702 160.436 24.462C160.544 24.21 160.598 23.976 160.598 23.76V22.194ZM164.506 17.694V27H166.036V21.744C166.036 21.324 166.09 20.94 166.198 20.592C166.318 20.232 166.492 19.92 166.72 19.656C166.948 19.392 167.23 19.188 167.566 19.044C167.914 18.9 168.322 18.828 168.79 18.828C169.378 18.828 169.84 18.996 170.176 19.332C170.512 19.668 170.68 20.124 170.68 20.7V27H172.21V20.88C172.21 20.376 172.156 19.92 172.048 19.512C171.952 19.092 171.778 18.732 171.526 18.432C171.274 18.132 170.944 17.898 170.536 17.73C170.128 17.562 169.618 17.478 169.006 17.478C167.626 17.478 166.618 18.042 165.982 19.17H165.946V17.694H164.506ZM182.535 26.208V17.694H181.095V19.026H181.077C180.801 18.51 180.417 18.126 179.925 17.874C179.433 17.61 178.893 17.478 178.305 17.478C177.501 17.478 176.823 17.634 176.271 17.946C175.719 18.246 175.275 18.636 174.939 19.116C174.603 19.584 174.363 20.112 174.219 20.7C174.075 21.276 174.003 21.84 174.003 22.392C174.003 23.028 174.087 23.634 174.255 24.21C174.435 24.774 174.699 25.272 175.047 25.704C175.395 26.124 175.827 26.46 176.343 26.712C176.859 26.964 177.465 27.09 178.161 27.09C178.761 27.09 179.325 26.958 179.853 26.694C180.393 26.418 180.795 25.992 181.059 25.416H181.095V26.028C181.095 26.544 181.041 27.018 180.933 27.45C180.837 27.882 180.675 28.248 180.447 28.548C180.219 28.86 179.931 29.1 179.583 29.268C179.235 29.448 178.809 29.538 178.305 29.538C178.053 29.538 177.789 29.508 177.513 29.448C177.237 29.4 176.979 29.316 176.739 29.196C176.511 29.076 176.313 28.92 176.145 28.728C175.989 28.536 175.905 28.302 175.893 28.026H174.363C174.387 28.53 174.519 28.956 174.759 29.304C174.999 29.652 175.299 29.934 175.659 30.15C176.031 30.366 176.439 30.522 176.883 30.618C177.339 30.714 177.783 30.762 178.215 30.762C179.703 30.762 180.795 30.384 181.491 29.628C182.187 28.872 182.535 27.732 182.535 26.208ZM178.251 25.758C177.747 25.758 177.327 25.656 176.991 25.452C176.655 25.236 176.385 24.96 176.181 24.624C175.977 24.276 175.833 23.892 175.749 23.472C175.665 23.052 175.623 22.632 175.623 22.212C175.623 21.768 175.671 21.342 175.767 20.934C175.875 20.526 176.037 20.166 176.253 19.854C176.481 19.542 176.769 19.296 177.117 19.116C177.465 18.924 177.885 18.828 178.377 18.828C178.857 18.828 179.265 18.924 179.601 19.116C179.937 19.308 180.207 19.566 180.411 19.89C180.627 20.202 180.783 20.556 180.879 20.952C180.975 21.348 181.023 21.75 181.023 22.158C181.023 22.59 180.969 23.022 180.861 23.454C180.765 23.886 180.609 24.276 180.393 24.624C180.177 24.96 179.889 25.236 179.529 25.452C179.181 25.656 178.755 25.758 178.251 25.758ZM191.305 21.456H185.959C185.983 21.096 186.061 20.76 186.193 20.448C186.325 20.124 186.505 19.842 186.733 19.602C186.961 19.362 187.231 19.176 187.543 19.044C187.867 18.9 188.227 18.828 188.623 18.828C189.007 18.828 189.355 18.9 189.667 19.044C189.991 19.176 190.267 19.362 190.495 19.602C190.735 19.83 190.921 20.106 191.053 20.43C191.197 20.754 191.281 21.096 191.305 21.456ZM192.781 24.048H191.269C191.137 24.66 190.861 25.116 190.441 25.416C190.033 25.716 189.505 25.866 188.857 25.866C188.353 25.866 187.915 25.782 187.543 25.614C187.171 25.446 186.865 25.224 186.625 24.948C186.385 24.66 186.211 24.336 186.103 23.976C185.995 23.604 185.947 23.214 185.959 22.806H192.925C192.949 22.242 192.895 21.648 192.763 21.024C192.643 20.4 192.415 19.824 192.079 19.296C191.755 18.768 191.317 18.336 190.765 18C190.225 17.652 189.541 17.478 188.713 17.478C188.077 17.478 187.489 17.598 186.949 17.838C186.421 18.078 185.959 18.414 185.563 18.846C185.179 19.278 184.879 19.788 184.663 20.376C184.447 20.964 184.339 21.612 184.339 22.32C184.363 23.028 184.465 23.682 184.645 24.282C184.837 24.882 185.119 25.398 185.491 25.83C185.863 26.262 186.319 26.598 186.859 26.838C187.411 27.078 188.059 27.198 188.803 27.198C189.859 27.198 190.735 26.934 191.431 26.406C192.127 25.878 192.577 25.092 192.781 24.048Z" fill="#4C4C66"/>
<g filter="url(#filter0_d)">
<rect x="25" y="19" width="8" height="8" rx="1" fill="url(#paint0_linear)"/>
</g>
<g filter="url(#filter1_d)">
<circle cx="33.5" cy="17.5" r="3.5" stroke="#6F6C99"/>
</g>
<defs>
<filter id="filter0_d" x="0" y="0" width="58" height="58" filterUnits="userSpaceOnUse" color-interpolation-filters="sRGB">
<feFlood flood-opacity="0" result="BackgroundImageFix"/>
<feColorMatrix in="SourceAlpha" type="matrix" values="0 0 0 0 0 0 0 0 0 0 0 0 0 0 0 0 0 0 127 0"/>
<feOffset dy="6"/>
<feGaussianBlur stdDeviation="12.5"/>
<feColorMatrix type="matrix" values="0 0 0 0 0.602048 0 0 0 0 0.949963 0 0 0 0 0.930168 0 0 0 0.355129 0"/>
<feBlend mode="normal" in2="BackgroundImageFix" result="effect1_dropShadow"/>
<feBlend mode="normal" in="SourceGraphic" in2="effect1_dropShadow" result="shape"/>
</filter>
<filter id="filter1_d" x="20.5" y="10.5" width="26" height="26" filterUnits="userSpaceOnUse" color-interpolation-filters="sRGB">
<feFlood flood-opacity="0" result="BackgroundImageFix"/>
<feColorMatrix in="SourceAlpha" type="matrix" values="0 0 0 0 0 0 0 0 0 0 0 0 0 0 0 0 0 0 127 0"/>
<feOffset dy="6"/>
<feGaussianBlur stdDeviation="4.5"/>
<feColorMatrix type="matrix" values="0 0 0 0 0.467047 0 0 0 0 0.435035 0 0 0 0 0.779167 0 0 0 1 0"/>
<feBlend mode="normal" in2="BackgroundImageFix" result="effect1_dropShadow"/>
<feBlend mode="normal" in="SourceGraphic" in2="effect1_dropShadow" result="shape"/>
</filter>
<linearGradient id="paint0_linear" x1="21.7405" y1="17" x2="17.7405" y2="31.5191" gradientUnits="userSpaceOnUse">
<stop stop-color="#86E3FF"/>
<stop offset="1" stop-color="#4CFA9D"/>
</linearGradient>
</defs>
</svg>
